<?xml version="1.0" encoding="UTF-8"?>
<svg id="Layer_1" data-name="Layer 1" xmlns="http://www.w3.org/2000/svg" viewBox="0 0 284 140">
  <defs>
    <style>
      .cls-1 {
        fill: #186944;
      }

      .cls-1, .cls-2 {
        fill-rule: evenodd;
      }

      .cls-1, .cls-2, .cls-3 {
        stroke-width: 0px;
      }

      .cls-2 {
        fill: #dfb12e;
      }

      .cls-3 {
        fill: #fff;
      }
    </style>
  </defs>
  <rect class="cls-3" width="284" height="140"/>
  <g>
    <path class="cls-1" d="m100.42,54.2h9.14l2.97,13.98h.08l4.14-13.98h10.54l4.06,13.98h.16l2.89-13.98h8.51l-5.31,22.33h-11.87l-3.98-13.59h-.08l-4.06,13.59h-11.95l-5.23-22.33h0Z"/>
    <path class="cls-2" d="m142.82,54.2h11.95l4.06,13.59h.08l3.98-13.59h11.87l5.31,22.41h-8.51l-2.89-13.98h-.16l-4.06,13.98h-10.54l-4.14-13.98h-.08l-2.97,13.98h-9.14l5.23-22.41Z"/>
    <path class="cls-1" d="m60.05,84.5h3.05l.94,4.53h.08l1.33-4.53h3.44l1.33,4.53h.08l.94-4.53h2.81l-1.8,7.34h-3.83l-1.33-4.53h-.08l-1.25,4.53h-3.98l-1.72-7.34Zm17.34,0h3.83l3.75,7.34h-3.36l-.55-1.25h-3.83l-.55,1.25h-3.05l3.75-7.34Zm2.89,4.45l-1.09-2.5-1.17,2.5h2.26,0Zm8.28.47c0,.39.08.7.31.94.23.16.47.23.86.31.62-.08,1.33-.23,1.33-.78,0-.16,0-.23-.16-.31-.39-.47-3.9-.86-4.84-1.72-.39-.31-.55-.86-.55-1.25,0-1.64,1.48-2.34,4.37-2.34,3.2,0,4.14.86,4.14,2.42h-3.05c0-.47-.16-.7-.39-.86-.16-.16-.47-.23-.86-.16-.62-.08-1.02.23-1.02.62,0,.08.08.23.16.31.47.39,3.83.78,4.84,1.64.31.23.55.62.55,1.33,0,1.48-1.25,2.42-4.61,2.42-3.98,0-4.14-1.17-4.22-2.58h3.12,0Zm8.67-3.13h-2.34v-1.79h7.89v1.79h-2.42v5.54h-3.12v-5.54Zm6.4-1.79h7.03v1.48h-4.06v1.41h3.83v1.48h-3.83v1.41h4.14v1.56h-7.11v-7.34Zm12.73,0h4.69l1.48,4.92h.08l1.41-4.92h4.76v7.34h-2.89v-5.54l-2.03,5.54h-2.97l-1.87-5.54h-.08v5.54h-2.58v-7.34h0Zm16.79,0h3.83l3.75,7.34h-3.36l-.55-1.25h-3.83l-.55,1.25h-3.05l3.75-7.34Zm2.97,4.45l-1.17-2.5-1.17,2.5h2.34Zm5.31-4.45h4.45l2.5,4.92v-4.92h2.73v7.34h-4.37l-2.65-5.23v5.23h-2.66v-7.34h0Zm14.06,0h3.83l3.75,7.34h-3.44l-.55-1.25h-3.75l-.55,1.25h-3.05l3.75-7.34Zm2.89,4.45l-1.09-2.5-1.25,2.5h2.34Zm11.17-2.26c0-.16-.16-.39-.39-.55-.16-.23-.55-.31-1.01-.31-1.33,0-2.03.86-2.03,2.18,0,1.41.62,2.42,2.19,2.42.62,0,1.17-.08,1.41-.23v-1.09h-1.8v-1.56h4.84v3.83c-1.41.31-3.28.62-4.92.62-3.67,0-4.84-1.64-4.84-3.75,0-2.81,1.95-3.98,5.15-3.98,2.73,0,4.61.55,4.61,2.42h-3.2s0,0,0,0Zm4.92-2.19h7.03v1.48h-4.06v1.41h3.75v1.48h-3.75v1.41h4.06v1.56h-7.03v-7.34Zm8.43,0h4.69l1.48,4.92h.08l1.48-4.92h4.69v7.34h-2.89v-5.54l-2.03,5.54h-2.97l-1.87-5.54h-.08v5.54h-2.58v-7.34h0Zm14.13,0h7.03v1.48h-4.06v1.41h3.75v1.48h-3.75v1.41h4.06v1.56h-7.03v-7.34Zm8.36,0h4.53l2.5,4.92v-4.92h2.73v7.34h-4.37l-2.65-5.23v5.23h-2.73v-7.34h0Zm13.12,1.79h-2.42v-1.79h7.89v1.79h-2.42v5.54h-3.05v-5.54h0Z"/>
  </g>
</svg>