<?xml version="1.0" encoding="UTF-8"?>
<svg id="Layer_1" data-name="Layer 1" xmlns="http://www.w3.org/2000/svg" viewBox="0 0 284 140">
  <defs>
    <style>
      .cls-1 {
        fill: #93d500;
      }

      .cls-1, .cls-2, .cls-3 {
        stroke-width: 0px;
      }

      .cls-2 {
        fill: #00a0df;
      }

      .cls-3 {
        fill: #fff;
      }
    </style>
  </defs>
  <rect class="cls-3" width="284" height="140"/>
  <g>
    <g>
      <path class="cls-2" d="m94.34,58.66h4.56v4.65h-4.56v10.2c0,1.94.86,2.75,2.8,2.75.72,0,1.58-.14,1.81-.18v4.33c-.32.14-1.31.5-3.21.5-4.06,0-6.59-2.44-6.59-6.55v-11.06h-4.06v-4.65h1.13c2.35,0,3.39-1.49,3.39-3.43v-3.29h4.74v6.73Z"/>
      <path class="cls-2" d="m109.88,80.65h-5.24v-28.71h5.24v8.85c1.49-1.94,3.97-2.75,6.27-2.75,5.42,0,8.03,3.88,8.03,8.71v13.9h-5.24v-13c0-2.71-1.22-4.87-4.51-4.87-2.89,0-4.47,2.17-4.56,4.97v12.91Z"/>
      <path class="cls-2" d="m141.85,63.85c-.59-.09-1.17-.14-1.72-.14-4.06,0-5.91,2.35-5.91,6.46v10.47h-5.24v-21.98h5.1v3.52c1.04-2.39,3.48-3.79,6.36-3.79.63,0,1.17.09,1.4.14v5.33Z"/>
      <path class="cls-2" d="m148.28,48c1.9,0,3.43,1.53,3.43,3.43s-1.53,3.39-3.43,3.39-3.39-1.49-3.39-3.39,1.53-3.43,3.39-3.43Z"/>
      <rect class="cls-2" x="145.71" y="58.66" width="5.19" height="21.98"/>
      <path class="cls-2" d="m198.64,74.37c-1.17,3.84-4.65,6.95-9.93,6.95-5.96,0-11.24-4.33-11.24-11.78,0-6.95,5.15-11.56,10.7-11.56,6.77,0,10.74,4.47,10.74,11.42,0,.86-.09,1.58-.14,1.67h-16.07c.14,3.34,2.75,5.73,6,5.73s4.78-1.67,5.51-3.84l4.42,1.4Zm-5.01-7.13c-.09-2.57-1.81-4.88-5.42-4.88-3.3,0-5.19,2.53-5.37,4.88h10.79Z"/>
      <g>
        <path class="cls-1" d="m165.51,73.15c-1.52-3.35-6.58-14.49-6.58-14.49h-5.71l10.07,21.98h4.2s2.14-4.45,2.14-4.45c0,0-2.65.25-4.14-3.05Z"/>
        <path class="cls-1" d="m172.7,58.19c-.82.31-1.41,1.08-1.72,1.55-.36.55-.63,1.12-.63,1.12,0,0-.27-.57-.63-1.12-.31-.47-.9-1.25-1.72-1.55-2.04-.76-3.99.58-3.93,2.74.02.73.42,1.67.84,2.55.38.79,2.35,4.85,3.81,7.87.66,1.37,2.61,1.37,3.27,0,1.46-3.02,3.42-7.08,3.81-7.87.42-.87.82-1.82.84-2.55.06-2.16-1.89-3.5-3.93-2.74Z"/>
      </g>
    </g>
    <g>
      <path class="cls-1" d="m103.04,91.45v2.42h-1.25v-6.42h2.4c1.27,0,2.11.84,2.11,2s-.84,2-2.11,2h-1.15Zm1-1.08c.62,0,1-.36,1-.91s-.38-.92-1-.92h-.99v1.84h.99Z"/>
      <path class="cls-1" d="m108.61,93.86v-6.42h4.02v1.18h-2.77v1.47h2.51v1.11h-2.51v1.48h2.77v1.18h-4.02Z"/>
      <path class="cls-1" d="m118.04,88.63v5.23h-1.26v-5.23h-2.03v-1.19h5.31v1.19h-2.03Z"/>
      <path class="cls-1" d="m129.95,93.86v-2.66h-2.8v2.66h-1.25v-6.42h1.25v2.58h2.8v-2.58h1.26v6.42h-1.26Z"/>
      <path class="cls-1" d="m134.03,93.86v-6.42h4.02v1.18h-2.77v1.47h2.51v1.11h-2.51v1.48h2.77v1.18h-4.02Z"/>
      <path class="cls-1" d="m144.48,92.4h-2.61l-.53,1.47h-1.32l2.46-6.42h1.45l2.44,6.42h-1.36l-.53-1.47Zm-2.19-1.14h1.77l-.89-2.43-.89,2.43Z"/>
      <path class="cls-1" d="m148.55,93.86v-6.42h1.25v5.22h2.86v1.2h-4.11Z"/>
      <path class="cls-1" d="m157.05,88.63v5.23h-1.26v-5.23h-2.03v-1.19h5.31v1.19h-2.03Z"/>
      <path class="cls-1" d="m165.36,93.86v-2.66h-2.8v2.66h-1.25v-6.42h1.25v2.58h2.8v-2.58h1.26v6.42h-1.26Z"/>
      <path class="cls-1" d="m169.06,90.66c0-2.05,1.55-3.35,3.27-3.35s2.69,1.09,2.94,2.13l-1.18.37c-.15-.62-.65-1.29-1.77-1.29-.96,0-1.97.69-1.97,2.15,0,1.37.96,2.12,1.99,2.12,1.1,0,1.63-.72,1.8-1.31l1.17.35c-.24.99-1.17,2.18-2.97,2.18s-3.29-1.29-3.29-3.34Z"/>
      <path class="cls-1" d="m181.28,92.4h-2.61l-.53,1.47h-1.32l2.46-6.42h1.45l2.44,6.42h-1.36l-.53-1.47Zm-2.19-1.14h1.77l-.89-2.43-.89,2.43Z"/>
      <path class="cls-1" d="m187.26,91.39h-.65v2.47h-1.26v-6.42h2.51c1.25,0,2.05.86,2.05,1.97,0,.9-.52,1.58-1.37,1.82l1.38,2.63h-1.39l-1.26-2.47Zm.36-1.08c.63,0,1.01-.36,1.01-.89s-.37-.9-1.01-.9h-1.01v1.78h1.01Z"/>
      <path class="cls-1" d="m192.37,93.86v-6.42h4.02v1.18h-2.77v1.47h2.51v1.11h-2.51v1.48h2.77v1.18h-4.02Z"/>
    </g>
  </g>
</svg>