<?xml version="1.0" encoding="UTF-8"?>
<svg id="Layer_1" data-name="Layer 1" xmlns="http://www.w3.org/2000/svg" viewBox="0 0 284 140">
  <defs>
    <style>
      .cls-1 {
        fill: #e30613;
      }

      .cls-1, .cls-2 {
        stroke-width: 0px;
      }

      .cls-2 {
        fill: #fff;
      }
    </style>
  </defs>
  <rect class="cls-2" width="284" height="140"/>
  <path class="cls-1" d="m132.39,72.61h9.19l-4.87-7.78-8.9,14.15h-4.03l10.77-16.95c.47-.66,1.22-1.12,2.16-1.12.84,0,1.59.37,2.06,1.03l10.87,16.96h-4.02l-1.87-3.19h-9.28l-2.06-3.11Zm42.08,3.09v-14.72h-3.47v16.12c0,.47.19.84.47,1.22.37.37.75.56,1.22.56h15.65l2.06-3.19h-15.93Zm-56.8-2.61c3.37,0,6-2.72,6-6s-2.72-6-6-6h-15v17.9h3.47v-14.81h11.34c1.6,0,2.9,1.3,2.91,2.91,0,1.6-1.3,2.9-2.9,2.91h-9.65l10.22,8.9h4.97l-6.94-5.81h1.59Zm-36.27,5.81c-4.97,0-8.9-4.03-8.9-8.9s4.03-8.9,8.9-8.9h10.4c4.97,0,8.9,4.03,8.9,8.9s-4.03,8.9-8.9,8.9h-10.4Zm10.22-3.19c3.2-.02,5.79-2.61,5.81-5.81-.02-3.2-2.61-5.79-5.81-5.81h-9.94c-3.2.02-5.79,2.61-5.81,5.81.02,3.2,2.61,5.79,5.81,5.81h9.94Zm65.23,3.19c-4.97,0-8.9-4.03-8.9-8.9s4.03-8.9,8.9-8.9h12.37l-2.06,3.19h-10.12c-3.2.02-5.79,2.61-5.81,5.81.02,3.2,2.61,5.79,5.81,5.81h12.37l-2.06,3.19h-10.5v-.19Zm42.08-3.19c-2.61,0-4.87-1.78-5.53-4.22h14.72l2.06-3.19h-16.68c.66-2.44,2.91-4.22,5.53-4.22h10.12l2.06-3.19h-12.37c-4.97,0-8.9,4.03-8.9,8.9s4.03,8.9,8.9,8.9h10.59l2.06-3.19h-12.56v.19Z"/>
</svg>