<?xml version="1.0" encoding="UTF-8"?>
<svg id="Layer_1" data-name="Layer 1" xmlns="http://www.w3.org/2000/svg" viewBox="0 0 284 140">
  <defs>
    <style>
      .cls-1 {
        fill: #252f3e;
      }

      .cls-1, .cls-2, .cls-3 {
        stroke-width: 0px;
      }

      .cls-2 {
        fill: #fff;
      }

      .cls-3 {
        fill: #f90;
      }
    </style>
  </defs>
  <rect class="cls-2" width="284" height="140"/>
  <g>
    <path class="cls-1" d="m126.68,74.25c0,.86.09,1.57.26,2.08.19.51.42,1.07.75,1.68.12.19.16.37.16.54,0,.23-.14.47-.44.7l-1.47.98c-.21.14-.42.21-.61.21-.23,0-.47-.12-.7-.33-.33-.35-.61-.72-.84-1.1-.23-.4-.47-.84-.72-1.38-1.82,2.15-4.11,3.22-6.87,3.22-1.96,0-3.53-.56-4.67-1.68-1.14-1.12-1.73-2.62-1.73-4.48,0-1.99.7-3.6,2.13-4.81,1.42-1.21,3.32-1.82,5.72-1.82.79,0,1.61.07,2.48.19.86.12,1.75.3,2.69.51v-1.71c0-1.78-.37-3.01-1.1-3.74-.75-.72-2.01-1.07-3.81-1.07-.82,0-1.66.09-2.52.3s-1.71.47-2.52.79c-.37.16-.65.26-.82.3-.16.05-.28.07-.37.07-.33,0-.49-.23-.49-.72v-1.14c0-.37.05-.65.16-.82s.33-.33.65-.49c.82-.42,1.8-.77,2.94-1.05,1.14-.3,2.36-.44,3.64-.44,2.78,0,4.81.63,6.12,1.89,1.28,1.26,1.94,3.18,1.94,5.75v7.57h.05Zm-9.48,3.55c.77,0,1.57-.14,2.41-.42.84-.28,1.59-.79,2.22-1.5.37-.44.65-.93.79-1.49.14-.56.23-1.24.23-2.03v-.98c-.68-.16-1.4-.3-2.15-.4-.75-.09-1.47-.14-2.2-.14-1.57,0-2.71.3-3.48.93-.77.63-1.14,1.52-1.14,2.69,0,1.1.28,1.92.86,2.48.56.58,1.38.86,2.45.86h0Zm18.76,2.52c-.42,0-.7-.07-.89-.23-.19-.14-.35-.47-.49-.91l-5.49-18.06c-.14-.47-.21-.77-.21-.93,0-.37.19-.58.56-.58h2.29c.44,0,.75.07.91.23.19.14.33.47.47.91l3.92,15.46,3.64-15.46c.12-.47.26-.77.44-.91.19-.14.51-.23.93-.23h1.87c.44,0,.75.07.93.23.19.14.35.47.44.91l3.69,15.65,4.04-15.65c.14-.47.3-.77.47-.91.19-.14.49-.23.91-.23h2.17c.37,0,.58.19.58.58,0,.12-.02.23-.05.37s-.07.33-.16.58l-5.63,18.06c-.14.47-.3.77-.49.91-.19.14-.49.23-.89.23h-2.01c-.44,0-.75-.07-.93-.23-.19-.16-.35-.47-.44-.93l-3.62-15.07-3.6,15.04c-.12.47-.26.77-.44.93-.19.16-.51.23-.93.23h-2.01Zm30.02.63c-1.21,0-2.43-.14-3.6-.42-1.17-.28-2.08-.58-2.69-.93-.37-.21-.63-.44-.72-.65-.09-.21-.14-.44-.14-.65v-1.19c0-.49.19-.72.54-.72.14,0,.28.02.42.07.14.05.35.14.58.23.79.35,1.66.63,2.57.82.93.19,1.85.28,2.78.28,1.47,0,2.62-.26,3.41-.77.79-.51,1.21-1.26,1.21-2.22,0-.65-.21-1.19-.63-1.64-.42-.44-1.21-.84-2.36-1.21l-3.39-1.05c-1.71-.54-2.97-1.33-3.74-2.38-.77-1.03-1.17-2.17-1.17-3.39,0-.98.21-1.85.63-2.59.42-.75.98-1.4,1.68-1.92.7-.54,1.49-.93,2.43-1.21.93-.28,1.92-.4,2.94-.4.51,0,1.05.02,1.57.09.54.07,1.03.16,1.52.26.47.12.91.23,1.33.37.42.14.75.28.98.42.33.19.56.37.7.58.14.19.21.44.21.77v1.1c0,.49-.19.75-.54.75-.19,0-.49-.09-.89-.28-1.33-.61-2.83-.91-4.48-.91-1.33,0-2.38.21-3.11.65-.72.44-1.1,1.12-1.1,2.08,0,.65.23,1.21.7,1.66.47.44,1.33.89,2.57,1.28l3.32,1.05c1.68.54,2.9,1.28,3.62,2.24.72.96,1.07,2.06,1.07,3.27,0,1-.21,1.92-.61,2.71-.42.79-.98,1.49-1.71,2.06-.72.58-1.59,1-2.59,1.31-1.05.33-2.15.49-3.34.49h0Z"/>
    <path class="cls-3" d="m170.38,92.31c-7.69,5.68-18.85,8.69-28.45,8.69-13.45,0-25.58-4.98-34.74-13.24-.72-.65-.07-1.54.79-1.03,9.9,5.75,22.12,9.23,34.76,9.23,8.53,0,17.89-1.78,26.51-5.42,1.28-.58,2.38.84,1.12,1.78h0Zm3.2-3.64c-.98-1.26-6.49-.61-8.99-.3-.75.09-.86-.56-.19-1.05,4.39-3.08,11.61-2.2,12.45-1.17.84,1.05-.23,8.27-4.34,11.73-.63.54-1.24.26-.96-.44.93-2.31,3.01-7.52,2.03-8.76h0Z"/>
  </g>
</svg>