<?xml version="1.0" encoding="UTF-8"?>
<svg id="Layer_1" data-name="Layer 1" xmlns="http://www.w3.org/2000/svg" viewBox="0 0 284 140">
  <defs>
    <style>
      .cls-1 {
        fill: #1428a0;
      }

      .cls-1, .cls-2 {
        stroke-width: 0px;
      }

      .cls-2 {
        fill: #fff;
      }
    </style>
  </defs>
  <rect class="cls-2" width="284" height="140"/>
  <path class="cls-1" d="m81.67,65.41c-.09-.38-.07-.77-.02-.98.13-.59.53-1.26,1.71-1.26,1.09,0,1.73.68,1.73,1.7v1.16h4.66v-1.31c0-4.06-3.66-4.71-6.3-4.71-3.32,0-6.03,1.1-6.52,4.15-.14.84-.16,1.57.04,2.52.81,3.82,7.44,4.92,8.41,7.34.18.45.13,1.03.04,1.38-.15.63-.57,1.26-1.82,1.26-1.17,0-1.86-.68-1.86-1.7v-1.8h-5.02v1.43c0,4.17,3.28,5.43,6.79,5.43s6.14-1.15,6.59-4.27c.22-1.61.06-2.66-.02-3.06-.79-3.92-7.87-5.08-8.4-7.26Zm60.71.05c-.08-.37-.06-.76-.02-.97.13-.6.54-1.25,1.69-1.25,1.08,0,1.71.67,1.71,1.68v1.14h4.6v-1.3c0-4.02-3.61-4.65-6.22-4.65-3.29,0-5.97,1.08-6.46,4.11-.13.82-.16,1.55.04,2.49.8,3.77,7.37,4.87,8.32,7.25.17.45.12,1.03.03,1.37-.14.62-.56,1.25-1.8,1.25-1.16,0-1.86-.67-1.86-1.67v-1.79h-4.96v1.42c0,4.13,3.23,5.37,6.71,5.37s6.09-1.14,6.53-4.23c.21-1.6.05-2.63-.03-3.03-.77-3.87-7.77-5.03-8.3-7.2Zm42.39,10.17l-4.4-15.03h-6.93v18.47h4.58l-.27-15.51,4.72,15.51h6.64v-18.47h-4.61l.25,15.03Zm-88.08-15.03l-3.46,18.67h5.04l2.61-17.28,2.54,17.28h5.01l-3.44-18.67h-8.3Zm28.2,0l-2.36,14.59-2.35-14.59h-7.62l-.4,18.67h4.67l.13-17.28,3.21,17.28h4.73l3.21-17.28.13,17.28h4.68l-.42-18.67h-7.61Zm43.38,0h-4.72v13.81c0,.24,0,.51-.04.71-.1.46-.49,1.36-1.79,1.36s-1.69-.89-1.78-1.36c-.05-.2-.05-.47-.05-.71v-13.81h-4.72v13.38c0,.34.02,1.05.04,1.23.33,3.49,3.07,4.62,6.51,4.62s6.18-1.13,6.52-4.62c.03-.18.06-.89.04-1.23v-13.38Zm32.42,8.19v2.72h1.91v2.7c0,.24,0,.5-.05.71-.08.5-.55,1.36-1.91,1.36s-1.82-.86-1.9-1.36c-.03-.21-.05-.47-.05-.71v-8.53c0-.3.02-.63.08-.88.09-.45.5-1.35,1.86-1.35,1.43,0,1.78.95,1.87,1.35.05.27.06.72.06.72v1.04h4.7v-.61s.02-.64-.04-1.24c-.35-3.5-3.24-4.61-6.55-4.61s-6.14,1.12-6.55,4.61c-.04.32-.09.89-.09,1.24v7.85c0,.34.01.61.07,1.23.31,3.41,3.26,4.61,6.56,4.61s6.25-1.21,6.56-4.61c.06-.62.06-.89.07-1.23v-5h-6.6Z"/>
</svg>