<svg width="219" height="79" viewBox="0 0 219 79" fill="none" xmlns="http://www.w3.org/2000/svg">
<path d="M103.81 0L92 11.81V78.51L118.83 67.01H207.08L218.89 55.2V0" fill="#F3574B"/>
<path d="M207.08 46.9501L201.89 52.1401H196.35V44.1001H207.08V46.9501Z" fill="white"/>
<path d="M207.08 11.8201H196.35V38.7401H207.08V11.8201Z" fill="white"/>
<path d="M114.67 22.5501H128.38V11.8201H114.67H112.33H109.32L103.95 17.1901V27.9101V38.6401V52.0401H114.67V38.6401H125.53V27.9101H114.67V22.5501Z" fill="white"/>
<path d="M140.65 27.9099H129.98V52.0499H140.65V27.9099Z" fill="white"/>
<path d="M185.99 38.74V27.74H172.48V51.98L192.9 52.15V38.74H185.99ZM181.89 37.32H176.71V32.14H181.89V37.32Z" fill="white"/>
<path d="M158.36 27.9099V31.9899L154.77 27.9099H144.1V52.0499H154.77V40.0199L158.36 44.0999V52.0499H169.03V27.9099H158.36Z" fill="white"/>
<path d="M4.256 52V30.336H0.352V26.08H13.888V30.336H10.016V52H4.256ZM15.914 52V26.08H21.098V35.136C21.7807 34.4533 22.4953 33.9627 23.242 33.664C23.9887 33.344 24.7887 33.184 25.642 33.184C26.3887 33.184 27.0073 33.376 27.498 33.76C28.01 34.1227 28.394 34.6347 28.65 35.296C28.906 35.936 29.034 36.672 29.034 37.504V52H23.85V38.24C23.85 37.792 23.7753 37.4507 23.626 37.216C23.4767 36.9813 23.1993 36.864 22.794 36.864C22.5807 36.864 22.3247 36.928 22.026 37.056C21.7273 37.1627 21.418 37.3227 21.098 37.536V52H15.914ZM32.1953 52V33.504H37.4113V52H32.1953ZM32.1633 30.368V26.752H37.4113V30.368H32.1633ZM46.328 52.32C44.7067 52.32 43.352 51.9573 42.264 51.232C41.1973 50.5067 40.3227 49.3227 39.64 47.68L43.192 46.112C43.5333 46.944 43.928 47.6053 44.376 48.096C44.8453 48.5653 45.3573 48.8 45.912 48.8C46.3173 48.8 46.616 48.7147 46.808 48.544C47.0213 48.3733 47.128 48.1387 47.128 47.84C47.128 47.3493 46.936 46.9013 46.552 46.496C46.1893 46.0907 45.528 45.4933 44.568 44.704L43.224 43.584C42.2427 42.752 41.464 41.952 40.888 41.184C40.3333 40.3947 40.056 39.424 40.056 38.272C40.056 37.2693 40.312 36.384 40.824 35.616C41.3573 34.848 42.0613 34.2507 42.936 33.824C43.8107 33.3973 44.7493 33.184 45.752 33.184C47.2667 33.184 48.536 33.6 49.56 34.432C50.584 35.264 51.2987 36.4373 51.704 37.952L48.344 39.488C48.216 39.0827 48.0347 38.6773 47.8 38.272C47.5653 37.8667 47.2773 37.5253 46.936 37.248C46.616 36.9707 46.264 36.832 45.88 36.832C45.5387 36.832 45.2613 36.928 45.048 37.12C44.856 37.312 44.76 37.568 44.76 37.888C44.76 38.2933 44.984 38.7307 45.432 39.2C45.9013 39.6693 46.5413 40.2347 47.352 40.896L48.664 42.048C49.1973 42.496 49.72 42.976 50.232 43.488C50.744 44 51.16 44.5653 51.48 45.184C51.8213 45.8027 51.992 46.5067 51.992 47.296C51.992 48.3627 51.7253 49.28 51.192 50.048C50.6587 50.7947 49.9547 51.36 49.08 51.744C48.2267 52.128 47.3093 52.32 46.328 52.32ZM62.414 52V33.504H67.63V52H62.414ZM62.382 30.368V26.752H67.63V30.368H62.382ZM76.5468 52.32C74.9254 52.32 73.5708 51.9573 72.4828 51.232C71.4161 50.5067 70.5414 49.3227 69.8588 47.68L73.4108 46.112C73.7521 46.944 74.1468 47.6053 74.5948 48.096C75.0641 48.5653 75.5761 48.8 76.1308 48.8C76.5361 48.8 76.8348 48.7147 77.0268 48.544C77.2401 48.3733 77.3468 48.1387 77.3468 47.84C77.3468 47.3493 77.1548 46.9013 76.7708 46.496C76.4081 46.0907 75.7468 45.4933 74.7868 44.704L73.4427 43.584C72.4614 42.752 71.6828 41.952 71.1068 41.184C70.5521 40.3947 70.2747 39.424 70.2747 38.272C70.2747 37.2693 70.5308 36.384 71.0428 35.616C71.5761 34.848 72.2801 34.2507 73.1548 33.824C74.0294 33.3973 74.9681 33.184 75.9708 33.184C77.4854 33.184 78.7548 33.6 79.7788 34.432C80.8028 35.264 81.5174 36.4373 81.9228 37.952L78.5628 39.488C78.4348 39.0827 78.2534 38.6773 78.0188 38.272C77.7841 37.8667 77.4961 37.5253 77.1548 37.248C76.8348 36.9707 76.4828 36.832 76.0988 36.832C75.7574 36.832 75.4801 36.928 75.2668 37.12C75.0748 37.312 74.9788 37.568 74.9788 37.888C74.9788 38.2933 75.2028 38.7307 75.6508 39.2C76.1201 39.6693 76.7601 40.2347 77.5708 40.896L78.8828 42.048C79.4161 42.496 79.9388 42.976 80.4508 43.488C80.9628 44 81.3788 44.5653 81.6988 45.184C82.0401 45.8027 82.2108 46.5067 82.2108 47.296C82.2108 48.3627 81.9441 49.28 81.4108 50.048C80.8774 50.7947 80.1734 51.36 79.2988 51.744C78.4454 52.128 77.5281 52.32 76.5468 52.32Z" fill="black"/>
</svg>
